<svg width="58" height="65" viewBox="0 0 58 65" fill="none" xmlns="http://www.w3.org/2000/svg">
<path d="M44.989 20.4848V16.4694C44.989 7.60892 37.7434 0.399414 28.8386 0.399414C19.9338 0.399414 12.6883 7.60892 12.6883 16.4694V20.4876H0.576172V54.6352C0.576172 60.1827 5.09527 64.6793 10.6705 64.6793H47.0067C52.582 64.6793 57.1011 60.1827 57.1011 54.6352V20.4848H44.989ZM20.7648 16.4694C20.7648 12.0392 24.3862 8.43578 28.8386 8.43578C33.291 8.43578 36.9124 12.0392 36.9124 16.4694V20.4876H20.762V16.4694H20.7648ZM40.9507 31.5327C39.2776 31.5327 37.9213 30.1832 37.9213 28.5184C37.9213 26.8536 39.2776 25.5041 40.9507 25.5041C42.6238 25.5041 43.9801 26.8536 43.9801 28.5184C43.9801 30.186 42.6238 31.5327 40.9507 31.5327ZM16.7265 31.5327C15.0534 31.5327 13.6971 30.1832 13.6971 28.5184C13.6971 26.8536 15.0534 25.5041 16.7265 25.5041C18.3997 25.5041 19.7559 26.8536 19.7559 28.5184C19.7559 30.186 18.3997 31.5327 16.7265 31.5327Z" fill="#F7AF69"/>
<path d="M28.8329 34.2954C28.8718 34.5304 29.6444 39.027 29.6444 40.7444C29.6444 43.3632 28.2464 45.2299 26.1759 45.9821L26.8262 57.9039C26.8624 58.5897 26.3121 59.1705 25.6172 59.1705H22.3961C21.7068 59.1705 21.1537 58.5953 21.1871 57.9039L21.8374 45.9821C19.7641 45.2299 18.3689 43.3577 18.3689 40.7444C18.3689 39.0215 19.1388 34.5304 19.1804 34.2954C19.3416 33.2777 21.4594 33.2639 21.5901 34.3507V41.4219C21.6568 41.5933 22.3488 41.5823 22.3961 41.4219C22.4655 40.1553 22.7935 34.453 22.7991 34.3203C22.9658 33.2777 25.0475 33.2777 25.2087 34.3203C25.2198 34.4558 25.5422 40.1526 25.6117 41.4219C25.6562 41.5823 26.3565 41.5933 26.4177 41.4219V34.3507C26.5483 33.2694 28.6717 33.2777 28.8329 34.2954ZM34.8333 48.601L34.0774 57.8707C34.0162 58.5704 34.5748 59.1732 35.2808 59.1732H38.099C38.7688 59.1732 39.3079 58.6367 39.3079 57.9703V34.7351C39.3079 34.0741 38.7688 33.5321 38.099 33.5321C33.9467 33.5349 26.9569 42.4728 34.8333 48.601Z" fill="white"/>
</svg>
